<?xml version="1.0" encoding="utf-8"?>
<!-- Generator: Adobe Illustrator 19.0.0, SVG Export Plug-In . SVG Version: 6.00 Build 0)  -->
<svg version="1.1" id="Layer_1" xmlns="http://www.w3.org/2000/svg" xmlns:xlink="http://www.w3.org/1999/xlink" x="0px" y="0px"
	 viewBox="0 0 300 300" style="enable-background:new 0 0 300 300;" xml:space="preserve">
<style type="text/css">
	.st0{fill:#E30613;}
</style>
<path id="XMLID_1_" class="st0" d="M133.3,13.3c0.7,4-2,7.8-5.9,8.5s-7.8-2-8.5-5.9s2-7.8,5.9-8.5C128.8,6.7,132.6,9.3,133.3,13.3z
	 M100.5,13.9c-3.8,1.4-5.8,5.6-4.4,9.4c1.4,3.8,5.6,5.8,9.4,4.4s5.8-5.6,4.4-9.4C108.5,14.5,104.3,12.5,100.5,13.9z M77.6,24.6
	c-3.5,2-4.7,6.5-2.7,10s6.5,4.7,10,2.7c3.5-2,4.7-6.5,2.7-10S81.1,22.5,77.6,24.6z M56.9,39.1c-3.1,2.6-3.5,7.2-0.9,10.3
	c2.6,3.1,7.2,3.5,10.3,0.9c3.1-2.6,3.5-7.2,0.9-10.3C64.6,36.9,60,36.4,56.9,39.1z M39.1,56.9c-2.6,3.1-2.2,7.7,0.9,10.3
	c3.1,2.6,7.7,2.2,10.3-0.9c2.6-3.1,2.2-7.7-0.9-10.3C46.3,53.4,41.7,53.8,39.1,56.9z M24.6,77.6c-2,3.5-0.8,8,2.7,10s8,0.8,10-2.7
	c2-3.5,0.8-8-2.7-10S26.6,74.1,24.6,77.6z M13.9,100.5c-1.4,3.8,0.6,8,4.4,9.4c3.8,1.4,8-0.6,9.4-4.4s-0.6-8-4.4-9.4
	C19.5,94.7,15.3,96.7,13.9,100.5z M7.4,124.8c-0.7,4,2,7.8,5.9,8.5c4,0.7,7.8-2,8.5-5.9s-2-7.8-5.9-8.5S8.1,120.9,7.4,124.8z
	 M5.2,150c0,4.1,3.3,7.3,7.3,7.3s7.3-3.3,7.3-7.3s-3.3-7.3-7.3-7.3S5.2,145.9,5.2,150z M7.4,175.2c0.7,4,4.5,6.7,8.5,5.9
	c4-0.7,6.7-4.5,5.9-8.5c-0.7-4-4.5-6.7-8.5-5.9C9.3,167.4,6.7,171.2,7.4,175.2z M13.9,199.5c1.4,3.8,5.6,5.8,9.4,4.4
	c3.8-1.4,5.8-5.6,4.4-9.4s-5.6-5.8-9.4-4.4S12.5,195.7,13.9,199.5z M24.6,222.4c2,3.5,6.5,4.7,10,2.7c3.5-2,4.7-6.5,2.7-10
	c-2-3.5-6.5-4.7-10-2.7C23.7,214.4,22.5,218.9,24.6,222.4z M39.1,243.1c2.6,3.1,7.2,3.5,10.3,0.9c3.1-2.6,3.5-7.2,0.9-10.3
	c-2.6-3.1-7.2-3.5-10.3-0.9S36.4,240,39.1,243.1z M56.9,260.9c3.1,2.6,7.7,2.2,10.3-0.9c2.6-3.1,2.2-7.7-0.9-10.3
	c-3.1-2.6-7.7-2.2-10.3,0.9C53.4,253.7,53.8,258.3,56.9,260.9z M77.6,275.4c3.5,2,8,0.8,10-2.7s0.8-8-2.7-10c-3.5-2-8-0.8-10,2.7
	S74.1,273.4,77.6,275.4z M100.5,286.1c3.8,1.4,8-0.6,9.4-4.4c1.4-3.8-0.6-8-4.4-9.4c-3.8-1.4-8,0.6-9.4,4.4
	C94.7,280.5,96.7,284.7,100.5,286.1z M124.8,292.6c4,0.7,7.8-2,8.5-5.9c0.7-4-2-7.8-5.9-8.5c-4-0.7-7.8,2-8.5,5.9
	S120.9,291.9,124.8,292.6z M150,294.8c4.1,0,7.3-3.3,7.3-7.3s-3.3-7.3-7.3-7.3s-7.3,3.3-7.3,7.3S145.9,294.8,150,294.8z
	 M175.2,292.6c4-0.7,6.7-4.5,5.9-8.5c-0.7-4-4.5-6.7-8.5-5.9c-4,0.7-6.7,4.5-5.9,8.5C167.4,290.7,171.2,293.3,175.2,292.6z
	 M199.5,286.1c3.8-1.4,5.8-5.6,4.4-9.4c-1.4-3.8-5.6-5.8-9.4-4.4c-3.8,1.4-5.8,5.6-4.4,9.4S195.7,287.5,199.5,286.1z M222.4,275.4
	c3.5-2,4.7-6.5,2.7-10c-2-3.5-6.5-4.7-10-2.7c-3.5,2-4.7,6.5-2.7,10C214.4,276.3,218.9,277.5,222.4,275.4z M243.1,260.9
	c3.1-2.6,3.5-7.2,0.9-10.3c-2.6-3.1-7.2-3.5-10.3-0.9c-3.1,2.6-3.5,7.2-0.9,10.3S240,263.6,243.1,260.9z M243.1,260.9
	c3.1-2.6,3.5-7.2,0.9-10.3c-2.6-3.1-7.2-3.5-10.3-0.9c-3.1,2.6-3.5,7.2-0.9,10.3S240,263.6,243.1,260.9z M260.9,243.1
	c2.6-3.1,2.2-7.7-0.9-10.3s-7.7-2.2-10.3,0.9c-2.6,3.1-2.2,7.7,0.9,10.3C253.7,246.6,258.3,246.2,260.9,243.1z M275.4,222.4
	c2-3.5,0.8-8-2.7-10c-3.5-2-8-0.8-10,2.7c-2,3.5-0.8,8,2.7,10C268.9,227.1,273.4,225.9,275.4,222.4z M286.1,199.5
	c1.4-3.8-0.6-8-4.4-9.4s-8,0.6-9.4,4.4c-1.4,3.8,0.6,8,4.4,9.4C280.5,205.3,284.7,203.3,286.1,199.5z M292.6,175.2
	c0.7-4-2-7.8-5.9-8.5c-4-0.7-7.8,2-8.5,5.9c-0.7,4,2,7.8,5.9,8.5C288.1,181.8,291.9,179.1,292.6,175.2z M294.8,150
	c0-4.1-3.3-7.3-7.3-7.3s-7.3,3.3-7.3,7.3s3.3,7.3,7.3,7.3S294.8,154.1,294.8,150z M292.6,124.8c-0.7-4-4.5-6.7-8.5-5.9
	s-6.7,4.5-5.9,8.5c0.7,4,4.5,6.7,8.5,5.9C290.7,132.6,293.3,128.8,292.6,124.8z M286.1,100.5c-1.4-3.8-5.6-5.8-9.4-4.4
	c-3.8,1.4-5.8,5.6-4.4,9.4c1.4,3.8,5.6,5.8,9.4,4.4C285.5,108.5,287.5,104.3,286.1,100.5z M275.4,77.6c-2-3.5-6.5-4.7-10-2.7
	s-4.7,6.5-2.7,10c2,3.5,6.5,4.7,10,2.7S277.5,81.1,275.4,77.6z M260.9,56.9c-2.6-3.1-7.2-3.5-10.3-0.9c-3.1,2.6-3.5,7.2-0.9,10.3
	c2.6,3.1,7.2,3.5,10.3,0.9C263.1,64.6,263.6,60,260.9,56.9z M243.1,39.1c-3.1-2.6-7.7-2.2-10.3,0.9s-2.2,7.7,0.9,10.3
	c3.1,2.6,7.7,2.2,10.3-0.9C246.6,46.3,246.2,41.7,243.1,39.1z M222.4,24.6c-3.5-2-8-0.8-10,2.7c-2,3.5-0.8,8,2.7,10
	c3.5,2,8,0.8,10-2.7C227.1,31.1,225.9,26.6,222.4,24.6z M199.5,13.9c-3.8-1.4-8,0.6-9.4,4.4s0.6,8,4.4,9.4s8-0.6,9.4-4.4
	C205.3,19.5,203.3,15.3,199.5,13.9z M175.2,7.4c-4-0.7-7.8,2-8.5,5.9c-0.7,4,2,7.8,5.9,8.5c4,0.7,7.8-2,8.5-5.9
	C181.8,11.9,179.1,8.1,175.2,7.4z M150,5.2c-4.1,0-7.3,3.3-7.3,7.3s3.3,7.3,7.3,7.3s7.3-3.3,7.3-7.3S154.1,5.2,150,5.2z">
	<animateTramsform attributeName="transform"
			 attributeType="XML"
			 type="rotate"
			 from="0 150 150"
			 to="360 150 150"
			 dur="10s"
			 repeatcount="indefinite"/>
</path>
</svg>
